PathFileType	4	(X/Y/Z)	C:/Users/beibeiliu/ov580/test_trc/User3\sequence.16_training_dense_left.trc
DataRate	CameraRate	NumFrames	NumMarkers	Units	OrigDataRate	OrigDataStartFrame	OrigNumFrames
120	120	7	19	mm	120	233	266
Frame#	Time	ThumbCMC			ThumbMCP			ThumbIP			ThumbTip			IndexMCP			IndexPIP			IndexTip			MiddleMCP			MiddlePIP			MiddleTip			RingMCP			RingPIP			RingTip			PinkyMCP			PinkyPIP			PinkyTip			BackHand1			BackHand2			BackHand3	
		X0	Y0	Z0	X1	Y1	Z1	X2	Y2	Z2	X3	Y3	Z3	X4	Y4	Z4	X5	Y5	Z5	X6	Y6	Z6	X7	Y7	Z7	X8	Y8	Z8	X9	Y9	Z9	X10	Y10	Z10	X11	Y11	Z11	X12	Y12	Z12	X13	Y13	Z13	X14	Y14	Z14	X15	Y15	Z15	X16	Y16	Z16	X17	Y17	Z17	X18	Y18	Z18	
232	1.93333	-231.943	-29.6151	-16.1717	-217.14	-30.3049	-43.8289	-202.601	-34.4321	-69.2676	-184.502	-43.2233	-81.4904	-214.798	-79.8483	-72.1396	-195.782	-75.2414	-96.0687	-172.911	-54.3733	-97.4774	-193.311	-89.6084	-65.6374	-169.737	-69.4022	-79.5735	-164.101	-41.7835	-56.3454	-177.746	-92.8092	-49.3281	-158.911	-72.5692	-57.647	-162.292	-45.1907	-37.0478	-172.121	-94.0622	-32.1834	-151.484	-76.5435	-39.7274	-156.394	-48.1765	-27.7628	-218.325	-87.8849	-1.1843	-223.89	-76.6965	24.5445	-241.733	-63.522	-3.7658	
233	1.94167	-233.226	-29.6533	-11.9561	-221.12	-31.7934	-42.6483	-207.93	-37.1997	-69.8244	-189.168	-55.1555	-86.1087	-222.646	-82.9835	-68.3605	-201.963	-83.741	-95.459	-177.424	-63.4757	-97.7662	-202.722	-92.4199	-62.839	-177.695	-79.1736	-79.684	-170.71	-46.4864	-52.8978	-189.974	-95.4771	-47.5115	-162.843	-80.2764	-56.9853	-168.649	-48.5276	-38.551	-177.99	-98.7251	-30.7068	-158.443	-80.3464	-43.4335	-157.956	-56.9197	-29.8758	-218.764	-94.0506	1.50648	-225.482	-78.0821	26.8262	-242.596	-67.801	-5.48001	
234	1.95	-235.428	-32.5184	-15.2174	-223.864	-32.9214	-42.9483	-213.194	-44.242	-71.2601	-196.774	-58.9108	-82.3606	-229.205	-88.2755	-68.3166	-208.853	-88.6798	-94.4729	-187.24	-68.0934	-100.364	-208.322	-96.9813	-65.4876	-183.219	-79.6812	-79.8676	-177.234	-51.7504	-56.121	-191.78	-100.264	-51.6247	-171.269	-83.1753	-59.8368	-172.922	-55.0802	-38.131	-184.679	-101.511	-31.5307	-162.98	-88.1853	-44.9544	-161.754	-59.5343	-33.8869	-224.203	-93.8366	0.204801	-229.35	-77.5439	26.0458	-246.474	-66.8526	-1.89984	
235	1.95833	-236.526	-30.0398	-10.3184	-228.615	-34.7029	-44.3968	-218.318	-44.2618	-71.1811	-203.337	-64.5639	-83.1191	-234.595	-91.0734	-63.8246	-220.808	-92.9134	-91.1087	-194.591	-70.4122	-101.022	-213.247	-100.424	-63.922	-191.851	-81.6242	-81.3571	-182.416	-55.3073	-56.6339	-197.746	-103.247	-49.917	-177.059	-84.7518	-60.9017	-175.769	-59.6262	-41.1624	-187.45	-107.151	-31.8072	-169.755	-90.8129	-47.2733	-166.368	-66.4877	-37.1825	-224.941	-93.1519	3.68642	-226.001	-77.6222	31.305	-250.95	-65.5717	-2.12601	
236	1.96667	-238.488	-27.6591	-11.0285	-231.246	-32.4129	-43.9298	-223.084	-46.0398	-71.4873	-209.74	-64.4173	-84.9478	-243.095	-89.1078	-65.2231	-227.306	-92.9341	-89.454	-200.094	-73.4865	-99.889	-224.966	-98.4325	-59.0281	-198.256	-85.4939	-79.7831	-188.796	-58.1663	-58.3706	-208.375	-103.011	-47.3942	-181.481	-86.984	-60.3916	-181.066	-61.3963	-40.3558	-194.255	-109.463	-30.2674	-176.892	-93.4934	-50.3147	-173.538	-67.0235	-38.5094	-231.232	-90.4207	5.42956	-228.589	-78.7419	31.6473	-250.318	-64.2881	2.7267	
237	1.975	-237.526	-32.2229	-9.00868	-233.857	-34.6251	-43.2548	-225.494	-47.2641	-65.7907	-214.441	-63.8574	-83.8195	-250.707	-86.9874	-62.5059	-239.794	-89.4208	-88.2821	-212.259	-75.7343	-98.5032	-234.325	-97.0209	-61.2286	-210.771	-85.5594	-82.0784	-193.842	-60.0739	-56.4427	-215.556	-103.662	-47.2213	-192.61	-90.8495	-63.8583	-186.733	-62.9394	-45.6	-205.342	-106.526	-34.2401	-186.353	-100.183	-50.4599	-177.102	-70.5249	-37.2478	-232.174	-91.2065	7.00167	-232.258	-76.8233	30.9175	-251.953	-62.6992	7.6836	
238	1.98333	-239.035	-24.0846	-7.44123	-233.873	-27.5015	-39.1971	-229.738	-41.3016	-69.3077	-220.172	-61.6448	-81.8026	-259.836	-78.4144	-58.5393	-245.906	-83.3924	-89.8967	-221.803	-67.5464	-99.3961	-242.975	-93.9515	-59.8351	-217.441	-86.9111	-80.1863	-200.869	-58.6242	-57.3335	-224.747	-99.8272	-50.1465	-202.251	-90.1562	-65.196	-191.532	-64.2288	-45.2173	-212.012	-108.264	-34.373	-194.833	-96.7734	-52.4988	-181.678	-74.0974	-39.7738	-239.085	-85.0614	7.98803	-233.804	-76.7342	32.5036	-253.262	-53.3128	10.0926	
